<svg xmlns="http://www.w3.org/2000/svg" version="1.1" xmlns:xlink="http://www.w3.org/1999/xlink" xmlns:svgjs="http://svgjs.dev/svgjs" width="1000" height="1000" viewBox="0 0 1000 1000"><rect width="1000" height="1000" fill="#ffffff"></rect><g transform="matrix(0.7,0,0,0.7,149.57576631630775,395.4183566256789)"><svg viewBox="0 0 396 119" data-background-color="#ffffff" preserveAspectRatio="xMidYMid meet" height="300" width="1000" xmlns="http://www.w3.org/2000/svg" xmlns:xlink="http://www.w3.org/1999/xlink"><g id="tight-bounds" transform="matrix(1,0,0,1,0.2399950553459007,-0.237068754551359)"><svg viewBox="0 0 395.52 119.4741354489708" height="119.4741354489708" width="395.52"><g><svg viewBox="0 0 395.52 119.4741354489708" height="119.4741354489708" width="395.52"><g transform="matrix(1,0,0,1,0,73.83980877206349)"><svg viewBox="0 0 395.52 45.634326676907314" height="45.634326676907314" width="395.52"><g><svg viewBox="0 0 395.52 45.634326676907314" height="45.634326676907314" width="395.52"><g><svg viewBox="0 0 395.52 45.634326676907314" height="45.634326676907314" width="395.52"><g transform="matrix(1,0,0,1,0,0)"><svg width="395.52" viewBox="1.75 -33.20000076293945 292.92999267578125 33.79999923706055" height="45.634326676907314" data-palette-color="#7173dc"><path d="M13.8 0.6L13.8 0.6Q10.6 0.6 7.43-0.58 4.25-1.75 1.75-4.1L1.75-4.1 5.95-9.15Q7.7-7.65 9.83-6.7 11.95-5.75 14-5.75L14-5.75Q16.3-5.75 17.43-6.6 18.55-7.45 18.55-8.9L18.55-8.9Q18.55-9.65 18.23-10.2 17.9-10.75 17.28-11.18 16.65-11.6 15.78-11.98 14.9-12.35 13.85-12.8L13.85-12.8 9.6-14.6Q8.35-15.1 7.18-15.9 6-16.7 5.08-17.78 4.15-18.85 3.6-20.28 3.05-21.7 3.05-23.5L3.05-23.5Q3.05-25.5 3.9-27.28 4.75-29.05 6.3-30.38 7.85-31.7 9.98-32.45 12.1-33.2 14.65-33.2L14.65-33.2Q17.5-33.2 20.28-32.1 23.05-31 25.15-28.9L25.15-28.9 21.4-24.25Q19.8-25.5 18.2-26.18 16.6-26.85 14.65-26.85L14.65-26.85Q12.75-26.85 11.63-26.08 10.5-25.3 10.5-23.9L10.5-23.9Q10.5-23.15 10.88-22.63 11.25-22.1 11.93-21.68 12.6-21.25 13.5-20.88 14.4-20.5 15.45-20.05L15.45-20.05 19.65-18.35Q22.65-17.15 24.38-15.05 26.1-12.95 26.1-9.5L26.1-9.5Q26.1-7.45 25.28-5.63 24.45-3.8 22.88-2.43 21.3-1.05 19-0.23 16.7 0.6 13.8 0.6ZM39 0L31.65 0 31.65-32.6 39-32.6 39-20.05 50.25-20.05 50.25-32.6 57.65-32.6 57.65 0 50.25 0 50.25-13.6 39-13.6 39 0ZM72.7 0L65.34 0 65.34-32.6 72.7-32.6 72.7 0ZM94.89 0L86.04 0 76.19-32.6 83.99-32.6 87.89-17.4Q88.64-14.7 89.22-12.18 89.79-9.65 90.54-6.95L90.54-6.95 90.74-6.95Q91.44-9.65 92.04-12.18 92.64-14.7 93.34-17.4L93.34-17.4 97.19-32.6 104.69-32.6 94.89 0ZM114.94-16.5L114.94-16.5 114.14-13.5 121.09-13.5 120.34-16.5Q119.64-18.95 118.99-21.7 118.34-24.45 117.69-27L117.69-27 117.49-27Q116.89-24.4 116.27-21.68 115.64-18.95 114.94-16.5ZM110.64 0L103.14 0 113.34-32.6 122.19-32.6 132.39 0 124.59 0 122.59-7.75 112.64-7.75 110.64 0ZM142.54 0L135.94 0 135.94-32.6 143.99-32.6 149.24-18.1Q149.74-16.65 150.19-15.13 150.64-13.6 151.14-12.1L151.14-12.1 151.34-12.1Q151.84-13.6 152.26-15.13 152.69-16.65 153.19-18.1L153.19-18.1 158.34-32.6 166.34-32.6 166.34 0 159.64 0 159.64-11.95Q159.64-13.15 159.74-14.6 159.84-16.05 159.99-17.53 160.14-19 160.29-20.43 160.44-21.85 160.59-23.05L160.59-23.05 160.39-23.05 157.74-15.3 153.09-2.85 149.04-2.85 144.39-15.3 141.79-23.05 141.59-23.05Q141.74-21.85 141.89-20.43 142.04-19 142.19-17.53 142.34-16.05 142.44-14.6 142.54-13.15 142.54-11.95L142.54-11.95 142.54 0ZM197.63 0.6L197.63 0.6Q194.53 0.6 191.78-0.48 189.03-1.55 186.96-3.65 184.88-5.75 183.68-8.88 182.48-12 182.48-16.1L182.48-16.1Q182.48-20.15 183.73-23.33 184.98-26.5 187.08-28.7 189.18-30.9 191.98-32.05 194.78-33.2 197.88-33.2L197.88-33.2Q201.03-33.2 203.53-31.93 206.03-30.65 207.68-28.95L207.68-28.95 203.78-24.25Q202.53-25.4 201.16-26.13 199.78-26.85 198.03-26.85L198.03-26.85Q196.38-26.85 194.91-26.13 193.43-25.4 192.36-24.05 191.28-22.7 190.66-20.75 190.03-18.8 190.03-16.35L190.03-16.35Q190.03-11.3 192.18-8.53 194.33-5.75 197.93-5.75L197.93-5.75Q199.93-5.75 201.51-6.63 203.08-7.5 204.28-8.8L204.28-8.8 208.18-4.2Q204.08 0.6 197.63 0.6ZM220.78-16.5L220.78-16.5 219.98-13.5 226.93-13.5 226.18-16.5Q225.48-18.95 224.83-21.7 224.18-24.45 223.53-27L223.53-27 223.33-27Q222.73-24.4 222.1-21.68 221.48-18.95 220.78-16.5ZM216.48 0L208.98 0 219.18-32.6 228.03-32.6 238.23 0 230.43 0 228.43-7.75 218.48-7.75 216.48 0ZM251.73 0.6L251.73 0.6Q248.53 0.6 245.35-0.58 242.18-1.75 239.68-4.1L239.68-4.1 243.88-9.15Q245.63-7.65 247.75-6.7 249.88-5.75 251.93-5.75L251.93-5.75Q254.23-5.75 255.35-6.6 256.48-7.45 256.48-8.9L256.48-8.9Q256.48-9.65 256.15-10.2 255.83-10.75 255.2-11.18 254.58-11.6 253.7-11.98 252.83-12.35 251.78-12.8L251.78-12.8 247.53-14.6Q246.28-15.1 245.1-15.9 243.93-16.7 243-17.78 242.08-18.85 241.53-20.28 240.98-21.7 240.98-23.5L240.98-23.5Q240.98-25.5 241.83-27.28 242.68-29.05 244.23-30.38 245.78-31.7 247.9-32.45 250.03-33.2 252.58-33.2L252.58-33.2Q255.43-33.2 258.2-32.1 260.98-31 263.08-28.9L263.08-28.9 259.33-24.25Q257.73-25.5 256.13-26.18 254.53-26.85 252.58-26.85L252.58-26.85Q250.68-26.85 249.55-26.08 248.43-25.3 248.43-23.9L248.43-23.9Q248.43-23.15 248.8-22.63 249.18-22.1 249.85-21.68 250.53-21.25 251.43-20.88 252.33-20.5 253.38-20.05L253.38-20.05 257.58-18.35Q260.58-17.15 262.3-15.05 264.03-12.95 264.03-9.5L264.03-9.5Q264.03-7.45 263.2-5.63 262.38-3.8 260.8-2.43 259.23-1.05 256.93-0.23 254.63 0.6 251.73 0.6ZM277.23-16.5L277.23-16.5 276.43-13.5 283.38-13.5 282.63-16.5Q281.93-18.95 281.28-21.7 280.63-24.45 279.98-27L279.98-27 279.78-27Q279.18-24.4 278.55-21.68 277.93-18.95 277.23-16.5ZM272.93 0L265.43 0 275.63-32.6 284.48-32.6 294.68 0 286.88 0 284.88-7.75 274.93-7.75 272.93 0Z" opacity="1" transform="matrix(1,0,0,1,0,0)" fill="#7173dc" class="undefined-text-0" data-fill-palette-color="primary" id="text-0"></path></svg></g></svg></g></svg></g></svg></g><g transform="matrix(1,0,0,1,158.2089714064383,0)"><svg viewBox="0 0 79.10205718712336 63.06663946748591" height="63.06663946748591" width="79.10205718712336"><g><svg xmlns="http://www.w3.org/2000/svg" xmlns:xlink="http://www.w3.org/1999/xlink" version="1.1" x="7.9999999999999964" y="0" viewBox="10 10.009765625 80.03515625 79.990234375" style="enable-background:new 0 0 100 100;" xml:space="preserve" height="63.06663946748591" width="63.10205718712337" class="icon-icon-0" data-fill-palette-color="accent" id="icon-0"><path d="M43.927 30.568c-2.259 0-4.096 1.837-4.096 4.096v4.624c0 0.553 0.447 1 1 1h6.19c0.553 0 1-0.447 1-1v-4.624C48.021 32.405 46.185 30.568 43.927 30.568zM46.021 38.288h-4.19v-3.624c0-1.155 0.94-2.096 2.096-2.096s2.095 0.94 2.094 2.096V38.288z" fill="#7173dc" data-fill-palette-color="accent"></path><path d="M56.073 30.568c-2.258 0-4.095 1.837-4.094 4.096v4.624c0 0.553 0.447 1 1 1h6.19c0.553 0 1-0.447 1-1v-4.624C60.169 32.405 58.332 30.568 56.073 30.568zM58.169 38.288h-4.19v-3.624c0-1.155 0.939-2.096 2.094-2.096s2.096 0.94 2.096 2.096V38.288z" fill="#7173dc" data-fill-palette-color="accent"></path><path d="M43.927 43.414c-2.259 0-4.096 1.837-4.096 4.095v4.625c0 0.553 0.447 1 1 1h6.19c0.553 0 1-0.447 1-1v-4.625C48.021 45.251 46.185 43.414 43.927 43.414zM46.021 51.134h-4.19v-3.625c0-1.155 0.94-2.095 2.096-2.095s2.095 0.939 2.094 2.095V51.134z" fill="#7173dc" data-fill-palette-color="accent"></path><path d="M56.073 43.414c-2.258 0-4.095 1.837-4.094 4.095v4.625c0 0.553 0.447 1 1 1h6.19c0.553 0 1-0.447 1-1v-4.625C60.169 45.251 58.332 43.414 56.073 43.414zM58.169 51.134h-4.19v-3.625c0-1.155 0.939-2.095 2.094-2.095s2.096 0.939 2.096 2.095V51.134z" fill="#7173dc" data-fill-palette-color="accent"></path><path d="M43.927 56.26c-2.259 0-4.096 1.837-4.096 4.094v4.625c0 0.553 0.447 1 1 1h6.19c0.553 0 1-0.447 1-1v-4.625C48.021 58.097 46.185 56.26 43.927 56.26zM46.021 63.979h-4.19v-3.625c0-1.155 0.94-2.095 2.096-2.094s2.095 0.939 2.094 2.094V63.979z" fill="#7173dc" data-fill-palette-color="accent"></path><path d="M56.073 56.26c-2.258 0-4.095 1.837-4.094 4.094v4.625c0 0.553 0.447 1 1 1h6.19c0.553 0 1-0.447 1-1v-4.625C60.169 58.097 58.332 56.26 56.073 56.26zM58.169 63.979h-4.19v-3.625c0-1.155 0.939-2.095 2.094-2.094s2.096 0.939 2.096 2.094V63.979z" fill="#7173dc" data-fill-palette-color="accent"></path><path d="M89.035 84.88c-2.03 0-3.094 1.02-3.948 1.838C84.311 87.462 83.75 88 82.524 88s-1.786-0.538-2.562-1.282c-0.854-0.818-1.918-1.838-3.948-1.838-2.028 0-3.091 1.02-3.946 1.838C71.293 87.462 70.732 88 69.508 88c-1.223 0-1.782-0.537-2.558-1.281-0.854-0.819-1.915-1.839-3.942-1.839-2.028 0-3.091 1.02-3.945 1.839C58.288 87.463 57.728 88 56.504 88s-1.783-0.537-2.559-1.281c-0.854-0.819-1.916-1.839-3.943-1.839s-3.09 1.02-3.943 1.839C45.283 87.463 44.724 88 43.5 88s-1.783-0.537-2.559-1.281c-0.854-0.819-1.916-1.839-3.943-1.839s-3.09 1.02-3.942 1.839C32.28 87.463 31.721 88 30.499 88s-1.781-0.537-2.556-1.281c-0.853-0.819-1.914-1.839-3.94-1.839-2.027 0-3.09 1.02-3.943 1.839C19.284 87.463 18.725 88 17.501 88c-1.223 0-1.782-0.537-2.558-1.281C14.09 85.899 13.028 84.88 11 84.88c-0.553 0-1 0.447-1 1s0.447 1 1 1c1.224 0 1.783 0.537 2.559 1.281C14.412 88.98 15.474 90 17.501 90s3.09-1.02 3.943-1.839c0.775-0.744 1.335-1.281 2.559-1.281 1.222 0 1.781 0.537 2.556 1.281C27.411 88.98 28.473 90 30.499 90s3.089-1.02 3.941-1.839c0.775-0.744 1.335-1.281 2.558-1.281 1.224 0 1.783 0.537 2.559 1.281C40.41 88.98 41.473 90 43.5 90s3.09-1.02 3.943-1.839c0.775-0.744 1.335-1.281 2.559-1.281s1.783 0.537 2.559 1.281C53.414 88.98 54.477 90 56.504 90c2.028 0 3.091-1.02 3.944-1.839 0.775-0.744 1.336-1.281 2.56-1.281 1.223 0 1.782 0.537 2.557 1.281C66.419 88.98 67.48 90 69.508 90c2.028 0 3.091-1.02 3.945-1.838 0.775-0.744 1.336-1.282 2.561-1.282 1.227 0 1.787 0.538 2.564 1.282C79.432 88.98 80.495 90 82.524 90s3.093-1.02 3.947-1.838c0.777-0.744 1.338-1.282 2.564-1.282 0.553 0 1-0.447 1-1S89.588 84.88 89.035 84.88z" fill="#7173dc" data-fill-palette-color="accent"></path><path d="M11 79.532c1.224 0 1.783 0.537 2.559 1.281 0.854 0.819 1.915 1.839 3.942 1.839s3.09-1.02 3.943-1.839c0.775-0.744 1.335-1.281 2.559-1.281 1.222 0 1.781 0.537 2.556 1.281 0.853 0.819 1.914 1.839 3.94 1.839s3.089-1.02 3.941-1.839c0.775-0.744 1.335-1.281 2.558-1.281 1.224 0 1.783 0.537 2.559 1.281 0.854 0.819 1.916 1.839 3.943 1.839s3.09-1.02 3.943-1.839c0.775-0.744 1.335-1.281 2.559-1.281s1.783 0.537 2.559 1.281c0.854 0.819 1.916 1.839 3.943 1.839 2.028 0 3.091-1.02 3.944-1.839 0.775-0.744 1.336-1.281 2.56-1.281 1.223 0 1.782 0.537 2.557 1.281 0.854 0.819 1.915 1.839 3.943 1.839 2.028 0 3.091-1.02 3.945-1.838 0.775-0.744 1.336-1.282 2.561-1.282 1.227 0 1.787 0.538 2.564 1.282 0.854 0.818 1.917 1.838 3.946 1.838s3.093-1.02 3.947-1.838c0.777-0.744 1.338-1.282 2.564-1.282 0.553 0 1-0.447 1-1s-0.447-1-1-1c-2.03 0-3.094 1.02-3.948 1.838-0.776 0.744-1.337 1.282-2.563 1.282s-1.786-0.538-2.562-1.282c-0.854-0.818-1.918-1.838-3.948-1.838-2.028 0-3.091 1.02-3.946 1.838-0.775 0.744-1.336 1.282-2.56 1.282-1.223 0-1.782-0.537-2.558-1.281-0.854-0.819-1.915-1.839-3.942-1.839-2.028 0-3.091 1.02-3.945 1.839-0.775 0.744-1.336 1.281-2.559 1.281s-1.783-0.537-2.559-1.281c-0.854-0.819-1.916-1.839-3.943-1.839s-3.09 1.02-3.943 1.839c-0.775 0.744-1.335 1.281-2.559 1.281s-1.783-0.537-2.559-1.281c-0.854-0.819-1.916-1.839-3.943-1.839s-3.09 1.02-3.942 1.839c-0.775 0.744-1.335 1.281-2.557 1.281s-1.781-0.537-2.556-1.281c-0.853-0.819-1.914-1.839-3.94-1.839-2.027 0-3.09 1.02-3.943 1.839-0.775 0.744-1.335 1.281-2.559 1.281-1.223 0-1.782-0.537-2.558-1.281C14.09 78.552 13.028 77.532 11 77.532c-0.553 0-1 0.447-1 1S10.447 79.532 11 79.532z" fill="#7173dc" data-fill-palette-color="accent"></path><path d="M11 73.701h78c0.553 0 1-0.447 1-1s-0.447-1-1-1h-9.882v-4.302h8.378c0.34 0 0.656-0.173 0.84-0.458 0.185-0.285 0.211-0.645 0.071-0.954l-3.585-7.928h0.867c0.342 0 0.659-0.174 0.843-0.462s0.208-0.65 0.065-0.96l-3.186-6.853h0.368c0.354 0 0.682-0.188 0.862-0.492 0.18-0.306 0.185-0.683 0.013-0.993l-5.661-10.208c-0.354-0.635-1.396-0.635-1.75 0l-5.661 10.208c-0.171 0.311-0.166 0.688 0.014 0.993 0.18 0.305 0.507 0.492 0.861 0.492h0.368l-3.185 6.853c-0.144 0.31-0.119 0.672 0.064 0.96s0.501 0.462 0.843 0.462h0.868l-3.585 7.928c-0.14 0.31-0.113 0.669 0.071 0.954 0.184 0.285 0.5 0.458 0.84 0.458h8.377v4.302H66.238V27.444h0.226c0.553 0 1-0.447 1-1v-4.862c0-0.553-0.447-1-1-1h-0.319l-1.121-8.044c-0.068-0.494-0.491-0.862-0.99-0.862h-2.976v-0.666c0-0.553-0.447-1-1-1h-4.844c-0.553 0-1 0.447-1 1v0.666H35.966c-0.499 0-0.922 0.368-0.99 0.862l-1.121 8.044h-0.319c-0.553 0-1 0.447-1 1v4.862c0 0.553 0.447 1 1 1h0.226v44.257H22.882v-4.302h8.377c0.34 0 0.656-0.173 0.84-0.458 0.185-0.285 0.211-0.645 0.071-0.954l-3.585-7.928h0.868c0.342 0 0.659-0.174 0.843-0.462s0.208-0.65 0.064-0.96l-3.185-6.853h0.368c0.354 0 0.682-0.188 0.861-0.492 0.18-0.306 0.185-0.683 0.014-0.993l-5.661-10.208c-0.354-0.635-1.396-0.635-1.75 0l-5.661 10.208c-0.171 0.311-0.166 0.688 0.013 0.993 0.18 0.305 0.507 0.492 0.862 0.492h0.368l-3.186 6.853c-0.144 0.31-0.119 0.672 0.065 0.96s0.501 0.462 0.843 0.462h0.867l-3.585 7.928c-0.14 0.31-0.113 0.669 0.071 0.954 0.184 0.285 0.5 0.458 0.84 0.458h8.378v4.302H11c-0.553 0-1 0.447-1 1S10.447 73.701 11 73.701zM78.118 40.638l3.963 7.146h-7.651c-0.002 0-0.004 0-0.006 0h-0.269L78.118 40.638zM75.032 49.784h6.172l2.918 6.275h-0.872c-0.001 0-0.002 0-0.003 0H72.99c-0.001 0-0.002 0-0.003 0h-0.873L75.032 49.784zM73.61 58.059h9.017l3.319 7.34H70.291L73.61 58.059zM21.882 40.638l3.963 7.146h-7.651c-0.002 0-0.004 0-0.006 0h-0.269L21.882 40.638zM18.796 49.784h6.172l2.918 6.275H27.012c-0.001 0-0.002 0-0.003 0H16.753c-0.001 0-0.002 0-0.003 0h-0.872L18.796 49.784zM17.373 58.059h9.017l3.319 7.34H14.054L17.373 58.059zM34.536 25.444v-2.862h30.928v2.862H34.536zM63.164 13.676l0.962 6.906h-3.068v-6.906H63.164zM59.058 12.01v8.572h-2.844v-8.572H59.058zM36.836 13.676h17.378v6.906H35.874L36.836 13.676zM35.762 27.444h28.476v44.257H35.762V27.444z" fill="#7173dc" data-fill-palette-color="accent"></path></svg></g></svg></g><g><rect width="158.2089714064383" height="4.115350674348632" y="57.95128879313728" x="237.31102859356167" fill="#7173dc" data-fill-palette-color="accent"></rect><rect width="158.2089714064383" height="4.115350674348632" y="57.95128879313728" x="0" fill="#7173dc" data-fill-palette-color="accent"></rect><rect width="158.2089714064383" height="4.115350674348632" y="49.720587444440014" x="237.31102859356167" fill="#7173dc" data-fill-palette-color="accent"></rect><rect width="158.2089714064383" height="4.115350674348632" y="49.720587444440014" x="0" fill="#7173dc" data-fill-palette-color="accent"></rect></g></svg></g><defs></defs></svg><rect width="395.52" height="119.4741354489708" fill="none" stroke="none" visibility="hidden"></rect></g></svg></g></svg>